<svg xmlns="http://www.w3.org/2000/svg" viewBox="0 0 500 500" width="500" height="500">
    <path d="m250 51.559 198.441 396.882H51.559z"
        style="stroke:#000;fill:#fff;stroke-width:16px;stroke-linecap:round;stroke-linejoin:round" />
    <path
        d="M250.001 244.552c-30.975 0-59.065 16.947-79.792 44.473a6.42 6.42 0 0 0 0 7.661c20.727 27.56 48.817 44.506 79.792 44.506s59.065-16.947 79.793-44.473a6.42 6.42 0 0 0 0-7.66c-20.728-27.56-48.818-44.507-79.793-44.507m2.222 82.346c-20.562 1.294-37.542-15.653-36.248-36.248 1.061-16.98 14.824-30.743 31.804-31.804 20.562-1.294 37.542 15.653 36.248 36.248-1.094 16.947-14.857 30.71-31.804 31.804m-1.028-15.72c-11.077.697-20.23-8.423-19.5-19.5.563-9.153 7.992-16.549 17.145-17.146 11.077-.696 20.23 8.424 19.5 19.5-.596 9.187-8.025 16.583-17.145 17.147" />
</svg>